<?xml version="1.0" encoding="UTF-8" standalone="no"?>
<!-- Created with Inkscape (http://www.inkscape.org/) -->

<svg
   xmlns:dc="http://purl.org/dc/elements/1.1/"
   xmlns:cc="http://creativecommons.org/ns#"
   xmlns:rdf="http://www.w3.org/1999/02/22-rdf-syntax-ns#"
   xmlns:svg="http://www.w3.org/2000/svg"
   xmlns="http://www.w3.org/2000/svg"
   xmlns:sodipodi="http://sodipodi.sourceforge.net/DTD/sodipodi-0.dtd"
   xmlns:inkscape="http://www.inkscape.org/namespaces/inkscape"
   width="793.70081"
   height="1122.5197"
   viewBox="0 0 210 297"
   version="1.1"
   id="svg8"
   inkscape:version="0.92.4 (33fec40, 2019-01-16)"
   sodipodi:docname="pinard.svg">
  <defs
     id="defs2" />
  <sodipodi:namedview
     id="base"
     pagecolor="#ffffff"
     bordercolor="#666666"
     borderopacity="1.0"
     inkscape:pageopacity="0.0"
     inkscape:pageshadow="2"
     inkscape:zoom="0.49497475"
     inkscape:cx="513.69026"
     inkscape:cy="600.84833"
     inkscape:document-units="mm"
     inkscape:current-layer="layer1"
     showgrid="false"
     units="px"
     inkscape:snap-bbox="true"
     inkscape:snap-global="false"
     inkscape:window-width="1864"
     inkscape:window-height="1043"
     inkscape:window-x="3896"
     inkscape:window-y="0"
     inkscape:window-maximized="1" />
  <metadata
     id="metadata5">
    <rdf:RDF>
      <cc:Work
         rdf:about="">
        <dc:format>image/svg+xml</dc:format>
        <dc:type
           rdf:resource="http://purl.org/dc/dcmitype/StillImage" />
        <dc:title></dc:title>
      </cc:Work>
    </rdf:RDF>
  </metadata>
  <g
     inkscape:label="Layer 1"
     inkscape:groupmode="layer"
     id="layer1">
    <path
       style="fill:none;stroke:#000000;stroke-width:0.26458332px;stroke-linecap:butt;stroke-linejoin:miter;stroke-opacity:1"
       d="m 13.184015,214.58271 0.709933,-0.62641 0.701584,-0.47607 0.918739,-0.15034 0.534539,-0.0251 0.283974,0.0919 1.628674,-1.38644"
       id="path284"
       inkscape:connector-curvature="0" />
    <path
       style="fill:none;stroke:#000000;stroke-width:0.26458332px;stroke-linecap:butt;stroke-linejoin:miter;stroke-opacity:1"
       d="m 18.028274,212.06036 27.228083,-26.9107 42.36222,-47.54057 45.034923,-52.685502 4.31563,-5.826871 2.25604,-3.09468"
       id="path286"
       inkscape:connector-curvature="0" />
    <path
       style="fill:none;stroke:#000000;stroke-width:0.26458332px;stroke-linecap:butt;stroke-linejoin:miter;stroke-opacity:1"
       d="m 139.33523,76.070283 h -0.23386 l 2.73952,-5.111528"
       id="path288"
       inkscape:connector-curvature="0" />
    <path
       style="fill:none;stroke:#000000;stroke-width:0.26458332px;stroke-linecap:butt;stroke-linejoin:miter;stroke-opacity:1"
       d="m 141.82537,70.960781 0.0811,-0.439401 c -1.94063,-1.99021 -3.33196,-4.24199 -4.61842,-6.543711 l -0.48429,-1.240234 -0.2008,-1.511905 0.12993,-1.133929 0.51972,-0.992187 1.03943,-1.015811"
       id="path290"
       inkscape:connector-curvature="0"
       inkscape:transform-center-x="0.31135495"
       inkscape:transform-center-y="0.29780617"
       sodipodi:nodetypes="ccc" />
    <path
       style="fill:none;stroke:#000000;stroke-width:0.26458332px;stroke-linecap:butt;stroke-linejoin:miter;stroke-opacity:1"
       d="m 138.3511,58.07179 1.38197,-0.602401 2.44504,-0.212609 1.81901,0.01181 1.96075,0.437037 2.19699,0.578776 2.46866,1.14574 1.98437,1.063058 2.12612,1.464658 4.05143,3.283668 1.59727,1.708185 1.73725,2.196621 1.16095,1.753956 0.80181,1.353052 0.77676,1.653731 0.51783,1.38646"
       id="path292"
       inkscape:connector-curvature="0" />
    <path
       style="fill:none;stroke:#000000;stroke-width:0.26458332px;stroke-linecap:butt;stroke-linejoin:miter;stroke-opacity:1"
       d="m 165.35225,75.151544 0.25892,1.987817 0.0251,1.386462 -0.36754,1.444926 -0.79345,1.202713 -0.63477,0.542891 -0.70993,0.292326 -1.78737,0.04176 -1.14425,10e-7 -1.50339,-0.3842 -2.2902,-0.661925 -2.08477,-0.939034 -1.08078,-0.43113 -1.12212,-0.04134 -0.13583,-0.0059 -1.23433,0.838628"
       id="path296"
       inkscape:connector-curvature="0" />
    <path
       style="fill:none;stroke:#000000;stroke-width:0.26458332px;stroke-linecap:butt;stroke-linejoin:miter;stroke-opacity:1"
       d="m 150.77702,80.390104 -0.0472,0.04134 -1.85444,1.57687 -2.39188,2.202893 -2.72852,2.870257 -2.58087,2.870256 -10.11086,11.89444 -17.69401,22.41871 -11.69364,15.11905 -35.860495,47.24702 -3.570427,5.3508 -4.860965,7.04923 -5.662773,8.36888 -7.283095,11.1418 -7.583773,11.80997 -0.03341,1.33635 -0.116929,0.93544 -0.400904,0.7684 -0.618061,0.43431 -0.534539,0.16705 -1.035669,0.0334 h -0.952148 l -2.639287,-1.62032 -3.173825,-2.37201 -8.68626,-7.21628 -4.777443,-4.2262 -0.718287,-0.93544 -0.334086,-0.55125 -0.116931,-0.63476 v -0.83522 l 0.150339,-0.61806 0.300678,-0.41761 0.08352,-0.11693"
       id="path302"
       inkscape:connector-curvature="0" />
    <path
       style="stroke-width:2.85714293;fill:#0000ff"
       d=""
       id="path327"
       inkscape:connector-curvature="0"
       transform="scale(0.26458333)" />
  </g>
</svg>
